# xmcd
#
# Track frame offsets:
#	150
#	13946
#	31249
#	51066
#	70229
#	84280
#	98742
#	116885
#	137965
#	154431
#	172823
#	187843
#	210564
#	229142
#	246580
#	263064
#	279035
#	297262
#	321642
#
# Disc length: 4294 seconds
#
# Revision: 1
# Processed by: cddbd v1.5.2PL0 Copyright (c) Steve Scherf et al.
# Submitted via: audiograbber 1.82.02
#
DISCID=1210c413
DTITLE=Chartbuster Karaoke - Country 5145-02
DYEAR=2011
DGENRE=Country
TTITLE0=Craig Morgan - Still A Little Chicken Left On That Bone
TTITLE1=Josh Thompson - Won't Be Lonely Long
TTITLE2=Jason Aldean with Kelly Clarkson - Don't You Wanna Stay
TTITLE3=Kiss Goodbye - Little Big Town
TTITLE4=Alabama - Are You Sure Hank Done It This Way
TTITLE5=Ashton Shepherd - Look It Up
TTITLE6=Rascal Flatts - I Won't Let Go
TTITLE7=Aaron Lewis - Country Boy
TTITLE8=The JaneDear Girls - Shotgun Girl
TTITLE9=Gary Allan - Kiss Me When I'm Down
TTITLE10=Blake Shelton - Who Are You When I'm Not Looking
TTITLE11=Taylor Swift - Back To December
TTITLE12=Keith Urban - Without You
TTITLE13=Craig Campbell - Family Man
TTITLE14=LeAnn Rimes - Crazy Women
TTITLE15=Eli Young Band - Crazy Girl
TTITLE16=Eric Church - Homeboy
TTITLE17=Carrie Underwood - Songs Like This
TTITLE18=Data - Data Track
EXTD=
EXTT0=
EXTT1=
EXTT2=
EXTT3=
EXTT4=
EXTT5=
EXTT6=
EXTT7=
EXTT8=
EXTT9=
EXTT10=
EXTT11=
EXTT12=
EXTT13=
EXTT14=
EXTT15=
EXTT16=
EXTT17=
EXTT18=
PLAYORDER=
